:SAMPLES-PER-SECOND 30
:FULLY-SPECIFIED
:DEGREES
258
root  7.116111245 35.38955628 0.8608044602 -150.9539795 -77.53759766 137.4299927
lowerback  11.6328001 3.21213007 -0.08075620234
upperback  9.243029594 3.638449907 4.19615984
thorax  2.903120041 1.462910056 4.087120056
lowerneck  5.391409874 3.91170001 -1.594409943
upperneck  33.10789871 -0.4781019986 13.36289978
head  9.558739662 0.08817269653 4.941659927
lclavicle  0 -9.442270133e-015 7.951389973e-016
lhumerus  25.66640091 -6.833209991 84.25769806
lradius  1.889676965e-031 -2.982945692e-031 122.3539963
lwrist  -7.062250077e-031 5.296687558e-031 51.01610184
lhand  -1.496451383e-031 -27.76390076 20.11240005
lfingers  90 7.125020027 -90
lthumb  89.89689403 5.08795885 91.16245106
rclavicle  0 -9.442270133e-015 7.951389973e-016
rhumerus  43.6242981 24.6718998 -85.33370209
rradius  -4.074122314e-032 3.507543202e-031 96.62539673
rwrist  3.531125038e-031 7.062250077e-031 -79.15910339
rhand  -7.920061211e-032 -33.2840004 9.303460121
rfingers  -90 -7.125020027 -90
rthumb  -92.93752616 -24.25625642 -97.11982154
rfemur  -9.019800186 7.68723011 -10.35610008
rtibia  -0 0 72.00869751
rfoot  -4.678406686e-032 -19.35840034 1.348829985
rtoes  5.373923086 19.29304026 -105.8922705
lfemur  -20.7595005 -4.859290123 -6.062220097
ltibia  -0 0 59.75910187
lfoot  4.520436298e-032 -12.46350002 -3.716639996
ltoes  -4.250644065 -19.5611806 -102.515957
259
root  7.11724439 35.19400048 0.7830177705 -150.5360107 -77.27059937 137.151001
lowerback  11.30630016 3.304069996 -0.6176779866
upperback  9.058790207 3.753710032 3.974100113
thorax  2.853430033 1.517729998 4.152870178
lowerneck  5.467969894 3.899169922 -1.165169954
upperneck  32.17380142 -0.2104219943 13.06760025
head  9.179320335 0.2363999933 4.720210075
lclavicle  0 -9.442270133e-015 7.951389973e-016
lhumerus  23.81640053 -7.062670231 85.04450226
lradius  1.918534516e-031 -2.964467802e-031 122.9100037
lwrist  -7.062250077e-031 1.765562519e-031 50.49869919
lhand  -1.496451383e-031 -27.76390076 20.11240005
lfingers  90 7.125020027 -90
lthumb  89.89689403 5.08795885 91.16245106
rclavicle  0 -9.442270133e-015 7.951389973e-016
rhumerus  41.96649933 24.62800026 -85.44889832
rradius  -4.355838344e-032 3.504156212e-031 97.08580017
rwrist  0 7.062250077e-031 -78.33979797
rhand  -7.920061211e-032 -33.2840004 9.303460121
rfingers  -90 -7.125020027 -90
rthumb  -92.93752616 -24.25625642 -97.11982154
rfemur  -8.562789917 7.405560017 -10.05830002
rtibia  -0 0 71.97119904
rfoot  -4.73620675e-032 -21.25919914 -3.30321002
rtoes  5.373923086 19.29304026 -105.8922705
lfemur  -20.93029976 -4.045390129 -5.936279774
ltibia  -0 0 60.18690109
lfoot  4.540665427e-032 -13.57009983 -4.572000027
ltoes  -4.250644065 -19.5611806 -102.515957
260
root  7.129644409 34.9586667 0.7053799986 -153.1699829 -77.20729828 139.9349976
lowerback  11.1552 3.409780025 -0.5171059966
upperback  8.852100372 3.925849915 3.980590105
thorax  2.70758009 1.621090055 4.086219788
lowerneck  5.593689919 3.904740095 -0.986002028
upperneck  31.12890053 0.07128000259 12.9137001
head  8.750869751 0.3707650006 4.593929768
lclavicle  0 -9.442270133e-015 7.951389973e-016
lhumerus  21.88139915 -7.174789906 85.82769775
lradius  1.952503167e-031 -2.942205876e-031 123.5690002
lwrist  -7.062250077e-031 7.062250077e-031 49.95709991
lhand  -1.496451383e-031 -27.76390076 20.11240005
lfingers  90 7.125020027 -90
lthumb  89.89689403 5.08795885 91.16245106
rclavicle  0 -9.442270133e-015 7.951389973e-016
rhumerus  40.19490051 24.66449928 -85.58779907
rradius  -4.709233044e-032 3.499582158e-031 97.66400146
rwrist  0 1.059337512e-030 -77.60310364
rhand  -7.920061211e-032 -33.2840004 9.303460121
rfingers  -90 -7.125020027 -90
rthumb  -92.93752616 -24.25625642 -97.11982154
rfemur  -7.959990025 7.57886982 -8.845290184
rtibia  -0 0 71.66049957
rfoot  -0 -24.6616993 -6.640160084
rtoes  5.373923086 19.29304026 -105.8922705
lfemur  -21.1529007 -2.848730087 -4.94423008
ltibia  -0 0 60.78290176
lfoot  9.115123357e-032 -14.42380047 -5.588429928
ltoes  -4.250644065 -19.5611806 -102.515957
261
root  7.154022427 34.71955427 0.6384222057 -156.5180054 -77.09829712 143.5969849
lowerback  10.95540047 3.473050117 -0.3460679948
upperback  8.62444973 4.041830063 4.138780117
thorax  2.565949917 1.693490028 4.146319866
lowerneck  5.627439976 3.999300003 -0.9513279796
upperneck  30.23259926 0.5168700218 12.52830029
head  8.387869835 0.55567801 4.429480076
lclavicle  0 -9.442270133e-015 7.951389973e-016
lhumerus  19.97360039 -7.022729874 86.73789978
lradius  1.990084629e-031 -2.916917415e-031 124.3040009
lwrist  -1.412450015e-030 3.531125038e-031 49.229599
lhand  -1.496451383e-031 -27.76390076 20.11240005
lfingers  90 7.125020027 -90
lthumb  89.89689403 5.08795885 91.16245106
rclavicle  0 -9.442270133e-015 7.951389973e-016
rhumerus  38.48279953 25.0970993 -85.57150269
rradius  -5.06684341e-032 3.494583668e-031 98.24990082
rwrist  3.531125038e-031 1.059337512e-030 -77.07929993
rhand  -7.920061211e-032 -33.2840004 9.303460121
rfingers  -90 -7.125020027 -90
rthumb  -92.93752616 -24.25625642 -97.11982154
rfemur  -7.520629883 7.95457983 -7.46889019
rtibia  -0 0 71.01920319
rfoot  -0 -29.13629913 -7.22770977
rtoes  5.373923086 19.29304026 -105.8922705
lfemur  -21.5965004 -1.457540035 -3.780529976
ltibia  -0 0 61.44340134
lfoot  4.571791484e-032 -15.10159969 -6.054709911
ltoes  -4.250644065 -19.5611806 -102.515957
